<?xml version="1.0" standalone="no"?>
<!DOCTYPE svg PUBLIC "-//W3C//DTD SVG 20010904//EN"
 "http://www.w3.org/TR/2001/REC-SVG-20010904/DTD/svg10.dtd">
<svg version="1.0" xmlns="http://www.w3.org/2000/svg"
 width="200.000000pt" height="200.000000pt" viewBox="0 0 200.000000 200.000000"
 preserveAspectRatio="xMidYMid meet">

<g transform="translate(0.000000,200.000000) scale(0.100000,-0.100000)"
fill="#000000" stroke="none">
<path d="M230 659 c0 -16 5 -29 10 -29 6 0 10 5 10 10 0 6 7 10 15 10 9 0 18
7 21 15 11 28 34 17 35 -17 l2 -33 4 30 c3 16 10 33 16 37 6 4 -16 7 -51 7
-62 -1 -62 -1 -62 -30z m40 11 c0 -5 -4 -10 -10 -10 -5 0 -10 5 -10 10 0 6 5
10 10 10 6 0 10 -4 10 -10z"/>
<path d="M380 661 c0 -17 5 -33 10 -36 6 -3 10 2 10 12 1 17 1 17 11 -1 9 -15
13 -16 20 -5 8 12 11 12 19 -1 7 -11 10 -6 10 23 0 42 -25 53 -33 15 l-4 -23
-8 23 c-11 33 -35 28 -35 -7z"/>
<path d="M480 655 c0 -29 4 -35 22 -35 21 0 21 0 2 15 -19 14 -19 14 1 15 l20
1 -20 11 c-19 12 -19 12 5 19 l25 7 -27 1 c-25 1 -28 -2 -28 -34z"/>
<path d="M542 658 c2 -27 8 -33 28 -35 14 -1 18 0 8 3 -12 4 -18 15 -18 35 0
16 -5 29 -11 29 -6 0 -9 -14 -7 -32z"/>
<path d="M613 655 c0 -22 2 -30 4 -17 2 12 2 30 0 40 -3 9 -5 -1 -4 -23z"/>
<path d="M640 654 c0 -35 19 -41 21 -6 0 13 3 12 11 -5 6 -13 15 -23 19 -23
14 0 22 51 10 63 -8 8 -11 5 -11 -13 l0 -24 -16 22 c-22 32 -34 27 -34 -14z"/>
<path d="M720 655 c0 -28 4 -35 19 -35 11 0 27 7 35 16 22 21 4 54 -29 54 -22
0 -25 -4 -25 -35z m45 0 c0 -10 -6 -20 -12 -22 -8 -3 -13 5 -13 22 0 17 5 25
13 23 6 -3 12 -13 12 -23z"/>
<path d="M807 683 c-22 -21 0 -63 33 -63 18 0 32 40 19 56 -12 15 -41 19 -52
7z m43 -22 c0 -11 -5 -23 -11 -27 -15 -9 -33 12 -26 30 9 23 37 20 37 -3z"/>
<path d="M900 661 c0 -27 1 -28 25 -18 33 16 33 47 0 47 -21 0 -25 -5 -25 -29z
m40 9 c0 -5 -4 -10 -10 -10 -5 0 -10 5 -10 10 0 6 5 10 10 10 6 0 10 -4 10
-10z"/>
<path d="M967 676 c-10 -26 4 -56 27 -56 20 1 20 1 1 12 -19 11 -19 11 0 19
17 7 18 8 3 8 -26 1 -22 19 5 24 20 4 19 4 -4 6 -15 0 -29 -5 -32 -13z"/>
<path d="M1030 660 c0 -16 5 -30 10 -30 6 0 10 5 10 10 0 18 20 11 21 -7 0
-10 5 -5 9 11 11 36 6 46 -26 46 -20 0 -24 -5 -24 -30z m40 10 c0 -5 -4 -10
-10 -10 -5 0 -10 5 -10 10 0 6 5 10 10 10 6 0 10 -4 10 -10z"/>
<path d="M1100 653 c1 -33 2 -36 14 -21 12 16 14 16 30 0 17 -16 18 -16 6 6
-9 18 -9 27 1 38 14 17 -2 19 -19 2 -9 -9 -12 -9 -12 0 0 7 -4 12 -10 12 -5 0
-10 -17 -10 -37z"/>
<path d="M1186 668 c-9 -34 -7 -38 9 -32 8 4 22 1 30 -6 18 -15 18 -12 4 29
-13 36 -34 41 -43 9z"/>
<path d="M1254 678 c-4 -6 0 -16 9 -23 22 -16 22 -26 0 -18 -14 5 -16 3 -6 -7
6 -7 19 -10 27 -7 20 8 21 37 1 37 -8 0 -15 4 -15 10 0 5 7 6 17 3 11 -4 14
-3 9 5 -9 15 -33 15 -42 0z"/>
<path d="M1321 659 c-14 -41 -14 -44 4 -29 8 7 22 10 30 6 17 -6 19 7 5 35
-15 27 -26 24 -39 -12z"/>
<path d="M1411 662 c-1 -21 4 -35 14 -38 20 -8 45 13 45 37 0 35 30 22 31 -13
l2 -33 4 30 c3 16 10 33 16 37 7 4 -7 8 -30 8 -38 0 -42 -2 -45 -27 -4 -37
-21 -36 -29 2 l-7 30 -1 -33z"/>
<path d="M1551 659 c-14 -41 -14 -41 9 -27 17 11 22 10 30 -2 9 -13 10 -13 10
0 0 30 -13 60 -25 60 -7 0 -18 -14 -24 -31z"/>
<path d="M1621 653 c0 -30 2 -34 9 -18 8 19 8 19 16 1 7 -18 8 -18 21 0 12 17
13 17 13 0 0 -9 5 -14 10 -11 6 3 10 19 10 36 0 35 -24 40 -35 7 l-8 -23 -4
23 c-8 38 -33 27 -32 -15z"/>
<path d="M1721 659 c-14 -41 -14 -41 9 -27 17 11 22 10 30 -2 8 -13 10 -12 10
3 0 23 -18 57 -29 57 -5 0 -14 -14 -20 -31z"/>
</g>
</svg>
